<svg width="414" height="89" viewBox="0 0 414 89" fill="none" xmlns="http://www.w3.org/2000/svg">
<path d="M1 12H43" stroke="#181818" stroke-width="3"/>
<path d="M1 38H43" stroke="#181818" stroke-width="3"/>
<path d="M1 64H43" stroke="#181818" stroke-width="3"/>
<path d="M52.7538 64L66.5458 47.168L54.5778 31.232H58.4498L68.8178 44.832L79.2178 31.232H83.0578L71.0898 47.168L84.8818 64H80.9138L68.8178 49.184L56.7218 64H52.7538ZM111.092 65.024C108.638 65.024 106.334 64.5973 104.18 63.744C102.046 62.8693 100.18 61.6533 98.5798 60.096C96.9798 58.5387 95.7211 56.704 94.8038 54.592C93.9078 52.4587 93.4598 50.1333 93.4598 47.616C93.4598 45.0987 93.9078 42.784 94.8038 40.672C95.6998 38.56 96.9478 36.7253 98.5478 35.168C100.148 33.5893 102.014 32.3733 104.148 31.52C106.281 30.6453 108.596 30.208 111.092 30.208C113.246 30.208 115.294 30.5387 117.236 31.2C119.177 31.8613 120.873 32.768 122.324 33.92L120.788 36.224C118.185 34.176 115.049 33.152 111.38 33.152C108.542 33.152 106.025 33.7813 103.828 35.04C101.652 36.2987 99.9451 38.0267 98.7078 40.224C97.4704 42.4 96.8518 44.864 96.8518 47.616C96.8518 50.368 97.4704 52.8427 98.7078 55.04C99.9451 57.216 101.662 58.9333 103.86 60.192C106.057 61.4507 108.585 62.08 111.444 62.08C113.214 62.08 114.889 61.824 116.468 61.312C118.068 60.7787 119.486 60.0107 120.724 59.008L122.324 61.312C120.852 62.464 119.156 63.3707 117.236 64.032C115.316 64.6933 113.268 65.024 111.092 65.024ZM149.623 65.024C146.189 65.024 143.138 64.2667 140.471 62.752C137.805 61.216 135.714 59.1573 134.199 56.576C132.685 53.9733 131.927 51.0507 131.927 47.808C131.927 45.3333 132.365 43.0293 133.239 40.896C134.135 38.7627 135.362 36.896 136.919 35.296C138.498 33.696 140.311 32.448 142.359 31.552C144.429 30.656 146.626 30.208 148.951 30.208C152.045 30.208 154.839 30.9227 157.335 32.352C159.853 33.76 161.869 35.712 163.383 38.208C164.919 40.704 165.762 43.552 165.911 46.752C165.911 46.9653 165.911 47.1573 165.911 47.328C165.911 47.4773 165.901 47.6587 165.879 47.872H135.255C135.255 50.624 135.874 53.0773 137.111 55.232C138.349 57.3867 140.055 59.0827 142.231 60.32C144.429 61.536 146.925 62.144 149.719 62.144C152.386 62.144 154.786 61.5787 156.919 60.448C159.074 59.3173 160.813 57.7173 162.135 55.648L164.695 57.088C163.138 59.6053 161.037 61.5573 158.391 62.944C155.767 64.3307 152.845 65.024 149.623 65.024ZM135.415 45.184H162.519C162.242 42.8587 161.474 40.7893 160.215 38.976C158.957 37.1627 157.357 35.7333 155.415 34.688C153.474 33.6213 151.341 33.088 149.015 33.088C146.647 33.088 144.482 33.6107 142.519 34.656C140.578 35.7013 138.978 37.1413 137.719 38.976C136.461 40.7893 135.693 42.8587 135.415 45.184ZM178.577 64V8.96H181.969V64H178.577ZM197.575 64V31.232H200.967V64H197.575ZM199.271 24.736C198.844 24.736 198.449 24.6293 198.087 24.416C197.724 24.2027 197.436 23.9147 197.223 23.552C197.009 23.1893 196.903 22.7947 196.903 22.368C196.903 21.92 197.009 21.5253 197.223 21.184C197.436 20.8213 197.724 20.5333 198.087 20.32C198.449 20.1067 198.844 20 199.271 20C199.719 20 200.113 20.1067 200.455 20.32C200.817 20.5333 201.105 20.8213 201.319 21.184C201.532 21.5253 201.639 21.9093 201.639 22.336C201.639 22.784 201.532 23.1893 201.319 23.552C201.105 23.9147 200.817 24.2027 200.455 24.416C200.113 24.6293 199.719 24.736 199.271 24.736ZM216.637 64V31.232H220.029V35.904C220.839 34.3467 222.173 33.0133 224.029 31.904C225.906 30.7733 228.253 30.208 231.069 30.208C233.607 30.208 235.783 30.7307 237.597 31.776C239.41 32.8 240.797 34.3147 241.757 36.32C242.717 38.304 243.197 40.736 243.197 43.616V64H239.805V44.224C239.805 40.5973 238.962 37.8347 237.277 35.936C235.613 34.016 233.255 33.056 230.205 33.056C228.071 33.056 226.247 33.4827 224.733 34.336C223.218 35.1893 222.055 36.3093 221.245 37.696C220.434 39.0827 220.029 40.5653 220.029 42.144V64H216.637ZM266.205 65.024C263.517 65.024 261.149 64.32 259.101 62.912C257.074 61.4827 255.527 59.4667 254.461 56.864L256.509 55.168C257.447 57.408 258.759 59.1573 260.445 60.416C262.151 61.6747 264.061 62.304 266.173 62.304C267.645 62.304 269.01 61.9947 270.269 61.376C271.527 60.736 272.53 59.84 273.277 58.688C274.023 57.536 274.397 56.16 274.397 54.56C274.397 53.1307 274.066 52.0213 273.405 51.232C272.743 50.4213 271.773 49.728 270.493 49.152C269.213 48.576 267.666 47.936 265.853 47.232C264.445 46.6773 263.069 46.0587 261.725 45.376C260.402 44.672 259.303 43.7867 258.429 42.72C257.575 41.632 257.149 40.256 257.149 38.592C257.149 36.992 257.565 35.5627 258.397 34.304C259.25 33.0453 260.413 32.0533 261.885 31.328C263.378 30.5813 265.053 30.208 266.909 30.208C268.786 30.208 270.503 30.6453 272.061 31.52C273.639 32.3733 274.983 33.5893 276.093 35.168L274.237 36.992C272.487 34.2187 270.045 32.832 266.909 32.832C264.967 32.832 263.389 33.3547 262.173 34.4C260.957 35.4453 260.349 36.8 260.349 38.464C260.349 39.6587 260.69 40.64 261.373 41.408C262.077 42.1547 263.005 42.7947 264.157 43.328C265.309 43.8613 266.578 44.3947 267.965 44.928C269.949 45.6747 271.666 46.4107 273.117 47.136C274.589 47.8613 275.719 48.7893 276.509 49.92C277.319 51.0293 277.725 52.544 277.725 54.464C277.725 56.5973 277.223 58.464 276.221 60.064C275.239 61.6427 273.874 62.8693 272.125 63.744C270.397 64.5973 268.423 65.024 266.205 65.024ZM290.602 64V31.232H293.994V64H290.602ZM292.298 24.736C291.872 24.736 291.477 24.6293 291.114 24.416C290.752 24.2027 290.464 23.9147 290.25 23.552C290.037 23.1893 289.93 22.7947 289.93 22.368C289.93 21.92 290.037 21.5253 290.25 21.184C290.464 20.8213 290.752 20.5333 291.114 20.32C291.477 20.1067 291.872 20 292.298 20C292.746 20 293.141 20.1067 293.482 20.32C293.845 20.5333 294.133 20.8213 294.346 21.184C294.56 21.5253 294.666 21.9093 294.666 22.336C294.666 22.784 294.56 23.1893 294.346 23.552C294.133 23.9147 293.845 24.2027 293.482 24.416C293.141 24.6293 292.746 24.736 292.298 24.736ZM323.776 81.6C319.702 81.6 316.256 80.7787 313.44 79.136C310.624 77.5147 308.512 75.1573 307.104 72.064L310.048 70.784C311.094 73.1947 312.843 75.1253 315.296 76.576C317.771 78.0267 320.608 78.752 323.808 78.752C326.454 78.752 328.832 78.2187 330.944 77.152C333.078 76.1067 334.752 74.5813 335.968 72.576C337.206 70.5707 337.824 68.1387 337.824 65.28V56.416C336.459 59.104 334.528 61.216 332.032 62.752C329.558 64.2667 326.795 65.024 323.744 65.024C320.651 65.024 317.867 64.2773 315.392 62.784C312.939 61.2693 310.987 59.2 309.536 56.576C308.107 53.952 307.392 50.9653 307.392 47.616C307.392 44.2453 308.107 41.2587 309.536 38.656C310.966 36.032 312.918 33.9733 315.392 32.48C317.867 30.9653 320.662 30.208 323.776 30.208C326.848 30.208 329.622 30.9653 332.096 32.48C334.571 33.9947 336.48 36.0853 337.824 38.752V31.232H341.216V64.896C341.216 68.608 340.491 71.7013 339.04 74.176C337.59 76.6507 335.552 78.5067 332.928 79.744C330.326 80.9813 327.275 81.6 323.776 81.6ZM324.416 62.016C327.062 62.016 329.408 61.408 331.456 60.192C333.504 58.9547 335.104 57.248 336.256 55.072C337.43 52.896 338.016 50.4107 338.016 47.616C338.016 44.8213 337.43 42.336 336.256 40.16C335.104 37.984 333.504 36.288 331.456 35.072C329.408 33.8347 327.062 33.216 324.416 33.216C321.792 33.216 319.456 33.8347 317.408 35.072C315.36 36.288 313.75 37.984 312.576 40.16C311.424 42.336 310.848 44.8213 310.848 47.616C310.848 50.4107 311.424 52.896 312.576 55.072C313.75 57.2267 315.36 58.9227 317.408 60.16C319.456 61.3973 321.792 62.016 324.416 62.016ZM356.819 64V8.896H360.211V35.904C361.022 34.3467 362.355 33.0133 364.211 31.904C366.089 30.7733 368.435 30.208 371.251 30.208C373.79 30.208 375.966 30.7307 377.779 31.776C379.593 32.8 380.979 34.3147 381.939 36.32C382.899 38.304 383.379 40.736 383.379 43.616V64H379.987V44.224C379.987 40.5973 379.145 37.824 377.459 35.904C375.795 33.984 373.438 33.024 370.387 33.024C368.254 33.024 366.43 33.4613 364.915 34.336C363.401 35.1893 362.238 36.3093 361.427 37.696C360.617 39.0827 360.211 40.5653 360.211 42.144V64H356.819ZM405.397 65.024C403.135 65.024 401.386 64.256 400.149 62.72C398.933 61.1627 398.325 58.976 398.325 56.16V33.792H395.221V31.232H398.325V19.008H401.717V31.232H410.101V33.792H401.717V56C401.717 57.9627 402.09 59.4667 402.837 60.512C403.583 61.536 404.65 62.048 406.037 62.048C407.381 62.048 408.522 61.6853 409.461 60.96L410.325 63.68C409.706 64.0853 408.959 64.4053 408.085 64.64C407.21 64.896 406.314 65.024 405.397 65.024Z" fill="#181818"/>
</svg>
