<svg width="36" height="36" viewBox="0 0 36 36" fill="none" xmlns="http://www.w3.org/2000/svg">
<g clip-path="url(#clip0_9_326)">
<path d="M30 33H27V30C27 28.8065 26.5259 27.6619 25.682 26.818C24.8381 25.9741 23.6935 25.5 22.5 25.5H13.5C12.3065 25.5 11.1619 25.9741 10.318 26.818C9.47411 27.6619 9 28.8065 9 30V33H6V30C6 28.0109 6.79018 26.1032 8.1967 24.6967C9.60322 23.2902 11.5109 22.5 13.5 22.5H22.5C24.4891 22.5 26.3968 23.2902 27.8033 24.6967C29.2098 26.1032 30 28.0109 30 30V33ZM18 19.5C16.8181 19.5 15.6478 19.2672 14.5558 18.8149C13.4639 18.3626 12.4718 17.6997 11.636 16.864C10.8003 16.0282 10.1374 15.0361 9.68508 13.9442C9.23279 12.8522 9 11.6819 9 10.5C9 9.3181 9.23279 8.14778 9.68508 7.05585C10.1374 5.96392 10.8003 4.97177 11.636 4.13604C12.4718 3.30031 13.4639 2.63738 14.5558 2.18508C15.6478 1.73279 16.8181 1.5 18 1.5C20.3869 1.5 22.6761 2.44821 24.364 4.13604C26.0518 5.82387 27 8.11305 27 10.5C27 12.8869 26.0518 15.1761 24.364 16.864C22.6761 18.5518 20.3869 19.5 18 19.5ZM18 16.5C19.5913 16.5 21.1174 15.8679 22.2426 14.7426C23.3679 13.6174 24 12.0913 24 10.5C24 8.9087 23.3679 7.38258 22.2426 6.25736C21.1174 5.13214 19.5913 4.5 18 4.5C16.4087 4.5 14.8826 5.13214 13.7574 6.25736C12.6321 7.38258 12 8.9087 12 10.5C12 12.0913 12.6321 13.6174 13.7574 14.7426C14.8826 15.8679 16.4087 16.5 18 16.5Z" fill="#676C74"/>
</g>
<defs>
<clipPath id="clip0_9_326">
<rect width="36" height="36" fill="white"/>
</clipPath>
</defs>
</svg>
